<svg version="1.1" xmlns="http://www.w3.org/2000/svg" xmlns:xlink="http://www.w3.org/1999/xlink" width="50px" height="50px" viewBox="0,0,256,256"><g fill="#774d4d" fill-rule="nonzero" stroke="none" stroke-width="1" stroke-linecap="butt" stroke-linejoin="miter" stroke-miterlimit="10" stroke-dasharray="" stroke-dashoffset="0" font-family="none" font-weight="none" font-size="none" text-anchor="none" style="mix-blend-mode: normal"><g transform="scale(5.12,5.12)"><path d="M25,1.02344l-11.35937,10.50781c-0.53516,0.48047 -0.77344,1.21484 -0.61719,1.92188c0.15625,0.70313 0.67969,1.26953 1.37109,1.48047c0.69141,0.21094 1.44141,0.03516 1.96484,-0.46484l6.64063,-6.14453v38.67578c-0.01172,0.72266 0.36719,1.39063 0.99219,1.75391c0.62109,0.36719 1.39453,0.36719 2.01563,0c0.625,-0.36328 1.00391,-1.03125 0.99219,-1.75391v-38.67578l6.64063,6.14453c0.52344,0.5 1.27344,0.67578 1.96484,0.46484c0.69141,-0.21094 1.21484,-0.77734 1.37109,-1.48047c0.15625,-0.70703 -0.08203,-1.44141 -0.61719,-1.92187z"></path></g></g></svg>