<svg version="1.1" xmlns="http://www.w3.org/2000/svg" xmlns:xlink="http://www.w3.org/1999/xlink" viewBox="0,0,256,256"><g fill="#47b64b" fill-rule="nonzero" stroke="none" stroke-width="1" stroke-linecap="butt" stroke-linejoin="miter" stroke-miterlimit="10" stroke-dasharray="" stroke-dashoffset="0" font-family="none" font-weight="none" font-size="none" text-anchor="none" style="mix-blend-mode: normal"><g transform="scale(5.33333,5.33333)"><path d="M16,32l5.095,-0.006l10.905,-15.994h-5.042z"></path><path d="M11.841,22.68c0.627,-0.366 1.153,-0.94 1.159,-1.665c0,-0.005 0,-8.015 0,-8.015c0,-0.552 0.448,-1 1,-1h2v-4h-2c-2.761,0 -5,2.239 -5,5v5.838c0,1.888 -1.208,3.565 -3,4.162v0v2v0c1.792,0.597 3,2.274 3,4.162v5.838c0,2.761 2.239,5 5,5h2v-4h-2c-0.552,0 -1,-0.448 -1,-1c0,0 0,-8.011 0,-8.016c-0.006,-0.725 -0.532,-1.298 -1.158,-1.663c-0.489,-0.286 -1.842,-1.321 -1.842,-1.321c0,0 1.352,-1.034 1.841,-1.32z"></path><path d="M36.159,22.68c-0.627,-0.366 -1.153,-0.94 -1.159,-1.665c0,-0.005 0,-8.015 0,-8.015c0,-0.552 -0.448,-1 -1,-1h-2v-4h2c2.761,0 5,2.239 5,5v5.838c0,1.888 1.208,3.565 3,4.162v0v2v0c-1.792,0.597 -3,2.274 -3,4.162v5.838c0,2.761 -2.239,5 -5,5h-2v-4h2c0.552,0 1,-0.448 1,-1c0,0 0,-8.011 0,-8.016c0.006,-0.725 0.532,-1.298 1.158,-1.663c0.489,-0.286 1.842,-1.321 1.842,-1.321c0,0 -1.352,-1.034 -1.841,-1.32z"></path></g></g></svg>